<?xml version="1.0" encoding="utf-8"?>
<!-- Generator: Adobe Illustrator 27.1.1, SVG Export Plug-In . SVG Version: 6.00 Build 0)  -->
<svg version="1.1" xmlns="http://www.w3.org/2000/svg" xmlns:xlink="http://www.w3.org/1999/xlink" x="0px" y="0px"
	 viewBox="0 0 256 256" style="enable-background:new 0 0 256 256;" xml:space="preserve">
<style type="text/css">
	.st0{fill:#101828;}
	.st1{fill:#BE2E31;}
</style>
<g id="Layer_2">
	<path class="st0" d="M221,256H35c-19.3,0-35-15.7-35-35V35C0,15.7,15.7,0,35,0h186c19.3,0,35,15.7,35,35v186
		C256,240.3,240.3,256,221,256z"/>
</g>
<g id="Layer_1">
	
		<image style="overflow:visible;opacity:0.65;" width="858" height="906" xlink:href="223518F.png"  transform="matrix(1 0 0 1 -129.4292 -164.4292)">
	</image>
	<g>
		<g>
			<g>
				<path class="st1" d="M57.9,227V23h80.9c22.4,0,39.2,4.9,50.4,14.8c11.3,9.9,16.9,22.4,16.9,37.6c0,12-3.5,21.8-10.5,29.2
					s-15.7,12.3-26.2,14.6v2.1c7.7,0.4,14.9,2.6,21.7,6.6c6.8,4,12.3,9.7,16.6,16.9s6.4,15.9,6.4,25.9c0,10.8-2.6,20.4-7.9,28.9
					c-5.3,8.5-13.1,15.2-23.5,20.1c-10.4,4.9-23.3,7.3-38.6,7.3H57.9z M99.7,108.7h33c8.9,0,16.4-2.4,22.3-7.1
					c5.9-4.7,8.9-11.2,8.9-19.4c0-7.4-2.6-13.4-7.9-18.1c-5.2-4.7-12.8-7-22.5-7H99.7V108.7z M99.7,192.6h36.1
					c12.3,0,21.3-2.4,26.9-7.1c5.6-4.7,8.4-11,8.4-18.8c0-8.5-3.1-15.5-9.2-21.1c-6.2-5.6-14.5-8.3-25-8.3H99.7V192.6z"/>
			</g>
		</g>
	</g>
</g>
</svg>
