<?xml version="1.0" encoding="utf-8"?>
<!-- Generator: Adobe Illustrator 27.1.1, SVG Export Plug-In . SVG Version: 6.00 Build 0)  -->
<svg version="1.1" xmlns="http://www.w3.org/2000/svg" xmlns:xlink="http://www.w3.org/1999/xlink" x="0px" y="0px"
	 viewBox="0 0 256 256" style="enable-background:new 0 0 256 256;" xml:space="preserve">
<style type="text/css">
	.st0{fill:#101828;}
	.st1{fill:#BE2E31;}
</style>
<g id="Layer_2">
	<path class="st0" d="M221,256H35c-19.3,0-35-15.7-35-35V35C0,15.7,15.7,0,35,0h186c19.3,0,35,15.7,35,35v186
		C256,240.3,240.3,256,221,256z"/>
</g>
<g id="Layer_1">
	
		<image style="overflow:visible;opacity:0.65;" width="142" height="228" xlink:href="223518C.png"  transform="matrix(1 0 0 1 67 22)">
	</image>
	<g>
		<g>
			<g>
				<g>
					<path class="st1" d="M75.7,41.2H126c17.3,0,30.7,3.8,40.2,11.3c9.4,7.5,14.1,18.2,14.1,32c0,5.3-0.6,10-1.9,14.1
						c-1.3,4.1-3.1,7.5-5.5,10.4c-2.4,2.9-5.5,5.3-9.2,7.2c-3.7,1.9-8.1,3.3-13.2,4c11.2,1.7,20,6.4,26.3,14.2
						c6.3,7.8,9.5,17.9,9.5,30.2c0,15.3-5,26.9-15.1,34.7c-10.2,7.9-25.2,11.8-45.1,11.8H75.7V41.2z M125.6,111.3
						c11.2,0,19.3-2.2,24.1-6.5c4.9-4.2,7.4-11,7.4-20.2c0-8.9-2.4-15.2-7.3-18.9c-4.9-3.8-13-5.7-24.3-5.7H98.8v51.2H125.6z
						 M126,192.3c13.2,0,22.7-2.4,28.6-7.1c5.7-4.7,8.5-12.4,8.5-23c0-11.1-3-19.2-9-24.5c-6.1-5.2-15.4-7.7-28.1-7.7H98.8v62.3H126
						z"/>
				</g>
				<rect x="115.8" y="88" class="st1" width="12.5" height="65"/>
				<rect x="115.8" y="198" class="st1" width="12.5" height="30"/>
				<rect x="115.8" y="30" class="st1" width="12.5" height="30"/>
			</g>
		</g>
	</g>
</g>
</svg>
